<svg id="Layer_1" data-name="Layer 1" xmlns="http://www.w3.org/2000/svg" viewBox="0 0 52.53 52.53"><defs><style>.cls-1{fill:#37486e;}</style></defs><title>issft</title><path class="cls-1" d="M45.37,52.53H7.16A7.17,7.17,0,0,1,0,45.37V7.16A7.17,7.17,0,0,1,7.16,0H45.37a7.17,7.17,0,0,1,7.16,7.16V45.37A7.17,7.17,0,0,1,45.37,52.53ZM7.16,2A5.17,5.17,0,0,0,2,7.16V45.37a5.17,5.17,0,0,0,5.16,5.16H45.37a5.17,5.17,0,0,0,5.16-5.16V7.16A5.17,5.17,0,0,0,45.37,2Z"/><rect class="cls-1" x="1" y="14.55" width="50.53" height="2"/><rect class="cls-1" x="8.88" y="21.23" width="6.76" height="6.76"/><rect class="cls-1" x="18.21" y="21.23" width="6.76" height="6.76"/><rect class="cls-1" x="27.55" y="21.23" width="6.76" height="6.76"/><rect class="cls-1" x="36.89" y="21.23" width="6.76" height="6.76"/><rect class="cls-1" x="8.88" y="30.16" width="6.76" height="6.76"/><rect class="cls-1" x="18.21" y="30.16" width="6.76" height="6.76"/><rect class="cls-1" x="27.55" y="30.16" width="6.76" height="6.76"/><rect class="cls-1" x="36.89" y="30.16" width="6.76" height="6.76"/><rect class="cls-1" x="8.88" y="39.09" width="6.76" height="6.76"/><rect class="cls-1" x="18.21" y="39.09" width="6.76" height="6.76"/><rect class="cls-1" x="27.55" y="39.09" width="6.76" height="6.76"/><rect class="cls-1" x="36.89" y="39.09" width="6.76" height="6.76"/></svg>