<svg version="1.1" id="Layer_1" xmlns="http://www.w3.org/2000/svg" xmlns:xlink="http://www.w3.org/1999/xlink" x="0px" y="0px"viewBox="0 0 180 180" style="enable-background:new 0 0 180 180;" xml:space="preserve"><style type="text/css">.st0{fill:#fff;}</style><path class="st0" d="M142,123H63.5L38.7,26.4H14.7v-8h30.1l8.5,33.1l111.1,1.1L142,123z M69.7,115h66.4l17.4-54.6l-98.1-1L69.7,115z"/><path class="st0" d="M79.8,151c0-6.1-4.9-11-11-11c-6.1,0-11,4.9-11,11c0,6.1,4.9,11,11,11C74.8,162,79.8,157.1,79.8,151"/><path class="st0" d="M150.1,151c0-6.1-4.9-11-11-11c-6.1,0-11,4.9-11,11c0,6.1,4.9,11,11,11C145.2,162,150.1,157.1,150.1,151"/></svg>