<svg id="Layer_1" data-name="Layer 1" xmlns="http://www.w3.org/2000/svg" viewBox="0 0 64.15 59.22">
	<defs>
		<style>
			.cls-1{fill:#37486e;}
		</style>
	</defs>
	<title>
		issft
	</title>
	<path class="cls-1" d="M51.91,43.37h-26A5.81,5.81,0,0,1,20.32,39L11.65,4.88A3.82,3.82,0,0,0,8,2H0V0H8a5.83,5.83,0,0,1,5.64,4.39l1.64,6.45H57a7.17,7.17,0,0,1,6.82,9.37L57.69,39.15A6.06,6.06,0,0,1,51.91,43.37ZM15.74,12.84,22.26,38.5a3.8,3.8,0,0,0,3.68,2.87h26a4.06,4.06,0,0,0,3.88-2.83l6.1-18.95A5.17,5.17,0,0,0,57,12.84Z" />
	<rect class="cls-1" x="18.65" y="26.11" width="31.19" height="2" />
	<path class="cls-1" d="M23.74,59.22a6.34,6.34,0,1,1,6.34-6.34A6.35,6.35,0,0,1,23.74,59.22Zm0-10.68a4.34,4.34,0,1,0,4.34,4.34A4.34,4.34,0,0,0,23.74,48.54Z" />
	<path class="cls-1" d="M55.19,59.22a6.34,6.34,0,1,1,6.34-6.34A6.35,6.35,0,0,1,55.19,59.22Zm0-10.68a4.34,4.34,0,1,0,4.34,4.34A4.34,4.34,0,0,0,55.19,48.54Z" />
</svg>
