<svg version="1.1" id="Layer_1" xmlns="http://www.w3.org/2000/svg" xmlns:xlink="http://www.w3.org/1999/xlink" x="0px" y="0px"viewBox="0 0 180 180" style="enable-background:new 0 0 180 180;" xml:space="preserve"><style type="text/css">.st0{fill:#010101;}</style><path class="st0" d="M149.5,81.6v1.3l-0.5,1.3l-1.3,2.1l-2.1,1.3l-1.3,0.5h-1.3h-3.5l-1.9-0.3l-1.9-0.5l-1.6-0.8l-1.3-1.1l-1.3-1.6l-0.8-1.6l-0.5-1.9l-0.5-1.9v-7l-7.8-35.1h18.2l9.6,35.4V81.6z M142.8,143.5h-11.5v-41.8H96.2v41.8H42.6V91.7h3.8l3.5-0.5l3.2-1.3l2.7-2.1l2.1-2.9l2.1,2.9l2.7,2.1l3.2,1.3l3.5,0.5h0.3l3.5-0.5l3.2-1.3l2.7-2.1l2.1-2.9l2.1,2.9l2.7,2.1l3.2,1.3l3.5,0.5H93l3.5-0.5l3.2-1.3l2.7-2.1l2.1-2.9l2.1,2.9l2.7,2.1l3.2,1.3l3.5,0.5h0.3l3.8-0.5l2.9-1.3l2.7-2.1l2.1-2.9l2.1,2.9l2.7,2.1l3.5,1.3l3.2,0.5h3.5V143.5z M99.4,143.5v-38.6h28.4v38.6H99.4z M56,71.6v7v1.9l-0.5,1.9L54.4,84l-1.1,1.6l-1.6,1.1l-1.6,0.8L48.2,88l-1.9,0.3h-3.8h-1.3l-1.1-0.5l-2.1-1.3l-1.3-2.1l-0.5-1.3v-1.3v-9.6l9.6-35.4h18.2l-7.8,34.8L56,71.6z M82.8,36.5l-3.5,35.1v7v1.9l-0.5,1.9L77.7,84l-1.1,1.6l-1.3,1.1l-1.9,0.8L71.6,88l-1.9,0.3h-0.3L67.3,88l-1.6-0.5l-1.9-0.8l-1.3-1.1L61.1,84l-0.8-1.6l-0.5-1.9l-0.3-1.9v-6.7l8-35.4H82.8z M102.9,78.6l-0.3,1.9l-0.5,1.9L101,84l-1.1,1.6l-1.3,1.1L97,87.5L95.1,88L93,88.3h-0.3L90.9,88L89,87.5l-1.6-0.8l-1.6-1.1L84.7,84l-1.1-1.6l-0.5-1.9l-0.3-1.9v-7L86,36.5h13.7l3.2,35.1V78.6z M106.1,71.4l-3.2-34.8h15.3l8,35.4v6.7l-0.3,1.9l-0.5,1.9l-0.8,1.6l-1.3,1.6l-1.3,1.1l-1.6,0.8l-1.9,0.5l-2.1,0.3H116l-1.9-0.3l-1.9-0.5l-1.6-0.8l-1.6-1.1L108,84l-1.1-1.6l-0.5-1.9l-0.3-1.9v-7V71.4z M142.6,33.3H43.2L32.7,71.1v10.4l0.5,3.2l1.3,2.7l2.1,2.1l2.7,1.6v55.5h106.9V91.2l2.7-1.6l2.1-2.1l1.3-2.7l0.5-3.2v-9.9L142.6,33.3z"/><path class="st0" d="M57.9,104.9h21.4v21.7H57.9V104.9z M54.4,130.1h28.4v-28.4H54.4V130.1z"/></svg>