<svg xmlns="http://www.w3.org/2000/svg" viewBox="0 0 48 45.14"><g id="Layer_2" data-name="Layer 2"><g id="Layer_1-2" data-name="Layer 1"><path d="M42.41,28.41,23.18,10.25,4,28.46l-2-2L23.18,6.25,44.45,26.42ZM38.6,44.05H7.76V26.35L23.18,11.76,38.6,26.33ZM.42,26.4,4,30l2.73-2.58V45.14h33V27.39L42.45,30,46,26.4,23.18,4.75Z"/><path d="M37.22,2.82l.35.62L38,4l.38.53.44.56.49.49.49.49.51.44.56.38-.56.42-.51.44-.49.49-.49.51-.44.51L38,9.8l-.4.58-.35.6-.33-.6-.36-.58-.4-.55-.46-.51-.45-.51-.51-.49L34.2,7.3l-.55-.42.55-.38.51-.44.51-.49.45-.49.46-.56.4-.53.36-.55Zm0,11,.18-.56.2-.55.24-.51.27-.56.29-.49.31-.46.33-.49.35-.44.4-.42.4-.4.45-.42.44-.36.44-.33L42,7.5l.49-.31L43,6.92l-.51-.29L42,6.37,41.52,6l-.44-.33-.44-.36-.45-.4-.4-.42-.4-.42L39,3.64l-.33-.49-.31-.47-.29-.53-.27-.51-.24-.51L37.4.58,37.22,0,37,.58l-.2.55-.2.51-.29.51-.26.53-.31.47-.36.49-.33.44-.42.42-.38.42-.44.38-.45.38L33,6l-.51.31L32,6.63l-.55.25.55.26.49.31.51.31.44.36.45.38.44.37.38.42.42.45.33.44.36.49.31.46.26.49.29.56.2.51.2.55Z"/><path d="M45,16.28l-.49-.6-.26-.26-.27-.25.53-.51L45,14l.24.31.25.31.51.51-.27.25-.24.26L45.2,16Zm0-4.68-.18.58-.26.55-.31.49-.36.47-.4.44-.49.42-.48.36-.54.26.54.31.48.33.49.4.4.45.36.46.31.54.26.55.18.53.2-.53.24-.55.36-.54.33-.46.42-.45.45-.4.51-.33.53-.31-.53-.26L47,14.55l-.45-.42-.42-.44-.33-.47-.36-.49-.24-.55Z"/><path d="M4.44,8.74l.48.71.56.69.58.62.64.55-.64.56-.58.62-.56.64-.48.73L4,13.13l-.53-.64-.6-.62-.65-.56.65-.55.6-.62L4,9.45Zm0,7.81.31-.82.35-.82.47-.78.51-.69.6-.62.64-.58.75-.51.78-.42-.78-.4-.75-.53L6.68,9.8l-.6-.62L5.57,8.5,5.1,7.74l-.35-.8-.31-.86-.14.44-.13.42-.38.8-.46.76-.54.68L2.2,9.8l-.69.58-.71.53-.8.4.8.42.71.51.69.58.59.62.54.69.46.78.38.82.13.4Z"/><path d="M34.11,37.17l0,.16,0,.15-.07.14-.11.13-.11.06-.13.09-.14.05H13l-.13-.05-.13-.09-.11-.06-.11-.13-.07-.14-.07-.15V32.76l0-.07.05-.11.09,0,.09,0H13l.07.07.07.07,0,.06.64,2.91H32.61l.64-2.91,0-.06.07-.07.06-.07h.45l.11,0,.09,0,0,.11,0,.07ZM33.85,32h-.36l-.26.07-.2.11-.18.2-.07.11-.06.13-.54,2.51H14.26l-.55-2.51,0-.13-.07-.11-.18-.2-.22-.11L13,32h-.37l-.14,0-.15,0-.14.09-.11.09-.08.11-.09.13,0,.15,0,.14v4.41l0,.29.07.24.13.23.16.17.2.16.2.11.24.09.27,0H14.4v1.29h.51V38.48H31.52v1.29H32V38.48h1.29l.28,0,.25-.09.2-.11.2-.16.15-.17.14-.23.06-.24,0-.29V32.76l0-.14,0-.15-.09-.13-.09-.11-.11-.09-.13-.09L34,32Z"/><polygon points="13.35 30.7 13.38 30.54 13.42 30.41 13.51 30.27 13.6 30.16 13.71 30.05 13.84 29.98 14 29.94 14.13 29.92 32.3 29.92 32.45 29.94 32.61 29.98 32.72 30.05 32.85 30.16 32.94 30.27 33.03 30.41 33.05 30.54 33.07 30.7 33.07 31.47 33.58 31.47 33.58 30.7 33.56 30.43 33.49 30.18 33.38 29.98 33.2 29.79 33.03 29.63 32.81 29.52 32.56 29.43 32.3 29.39 14.13 29.39 13.88 29.43 13.64 29.52 13.42 29.63 13.22 29.79 13.09 29.98 12.95 30.18 12.87 30.43 12.84 30.7 12.84 31.47 13.35 31.47 13.35 30.7"/></g></g></svg>