<svg id="Layer_1" data-name="Layer 1" xmlns="http://www.w3.org/2000/svg" viewBox="0 0 263 263"><title>LOGOS</title><path d="M204,154.51,128.27,83,52.74,154.68l-8-8,83.56-79.37L212,146.65Zm-15,61.56H67.58V146.39l60.69-57.46L189,146.3ZM38.68,146.56l13.89,14.06,10.74-10.13v69.85h130V150.49l10.83,10.13,14-14.06L128.27,61.34Z"/><path d="M183.54,53.75l1.4,2.44,1.57,2.19L188,60.47l1.75,2.18,1.92,1.92,1.92,1.92,2,1.75,2.18,1.48-2.18,1.66-2,1.75-1.92,1.92-1.92,2-1.75,2-1.48,2.18-1.57,2.27-1.4,2.36-1.31-2.36-1.4-2.27-1.57-2.18-1.83-2-1.75-2-2-1.92-2-1.75-2.18-1.66,2.18-1.48,2-1.75,2-1.92,1.75-1.92,1.83-2.18,1.57-2.09,1.4-2.19Zm0,43.22.7-2.19L185,92.6l1-2L187,88.41l1.14-1.92,1.22-1.84,1.31-1.92L192.1,81l1.57-1.66,1.57-1.57L197,76.1l1.74-1.4,1.75-1.31,2-1.22L204.41,71l2-1-2-1.14-1.92-1-2-1.4L198.73,65,197,63.61,195.24,62l-1.57-1.66-1.57-1.66L190.7,57l-1.31-1.93-1.22-1.83L187,51.12l-1.05-2-1-2-.78-2.19-.7-2.26-.7,2.26-.78,2.19-.79,2-1.14,2-1,2.1-1.23,1.83L176.47,57l-1.31,1.74-1.66,1.66L172,62l-1.74,1.48L168.52,65l-1.74,1.31-2,1.22-1.92,1.22-2.19,1,2.19,1L164.77,72l2,1.22,1.74,1.39,1.75,1.49L172,77.58l1.49,1.66L175.16,81l1.31,1.74,1.39,1.92,1.23,1.84,1,1.92,1.14,2.18.79,2,.78,2.18Z"/><path d="M214,106.75l-1.92-2.36-1.05-1-1-1,2.09-2L214,97.93l1,1.22,1,1.22,2,2-1.05,1-1,1-1,1.22Zm0-18.43-.7,2.27-1,2.19L211,94.7l-1.39,1.83-1.57,1.75-1.92,1.66-1.93,1.39-2.09,1,2.09,1.22,1.93,1.31,1.92,1.57,1.57,1.75,1.39,1.83,1.23,2.1,1,2.18.7,2.1.79-2.1,1-2.18,1.4-2.1,1.31-1.83,1.66-1.75,1.74-1.57,2-1.31,2.1-1.22-2.1-1-2-1.39-1.74-1.66-1.66-1.75-1.31-1.83-1.4-1.92-1-2.19Z"/><path d="M54.49,77.06l1.92,2.79,2.18,2.71L60.86,85l2.53,2.19-2.53,2.18-2.27,2.45-2.18,2.53-1.92,2.88-1.92-2.88-2.1-2.53-2.36-2.45-2.53-2.18L48.11,85l2.36-2.44,2.1-2.71Zm0,30.73,1.22-3.23,1.4-3.23,1.83-3,2-2.71,2.36-2.45,2.53-2.27,3-2,3-1.65-3-1.57-3-2.1-2.53-2.27L61,78.8l-2-2.7-1.83-3L55.71,70l-1.22-3.4L54,68.33,53.44,70,52,73.13l-1.83,3L48,78.8l-2.36,2.45L43,83.52l-2.79,2.1L37,87.19l3.15,1.65,2.79,2,2.71,2.27L48,95.57l2.09,2.71,1.83,3,1.49,3.23.52,1.58Z"/><path d="M171.32,189l-.09.61-.18.62-.26.52-.43.52-.44.26-.52.35-.53.18H88l-.53-.18-.52-.35-.44-.26-.43-.52-.27-.52-.26-.62v-18l.09-.26.17-.44.35-.18.35-.08h1.83l.27.26.26.26.09.26,2.53,11.44h73.87l2.53-11.44.09-.26.26-.26.26-.26h1.75l.44.08.34.18.18.44.09.26Zm-1-20.43h-1.4l-1.05.26-.78.44-.7.78-.26.44-.26.53-2.1,9.86H93.17L91,171l-.09-.53-.26-.44-.7-.78-.88-.44-1-.26H86.53l-.52.09-.61.17-.53.35-.43.35-.35.44-.35.52-.18.61-.08.53V189l.17,1.14.26,1,.53.87.61.7.78.61.79.44,1,.35,1,.08h5.06v5.07h2v-5.07h65.4v5.07h2v-5.07h5.06l1.14-.08,1-.35.78-.44.79-.61.61-.7.52-.87.27-1,.08-1.14V171.61l-.08-.53-.09-.61-.35-.52-.35-.44-.43-.35-.53-.35-.61-.17Z"/><polygon points="89.59 163.48 89.67 162.87 89.85 162.35 90.2 161.83 90.55 161.39 90.98 160.96 91.51 160.69 92.12 160.52 92.64 160.43 164.16 160.43 164.77 160.52 165.38 160.69 165.81 160.96 166.34 161.39 166.69 161.83 167.04 162.35 167.13 162.87 167.21 163.48 167.21 166.54 169.22 166.54 169.22 163.48 169.13 162.44 168.87 161.48 168.43 160.69 167.74 159.91 167.04 159.29 166.16 158.86 165.2 158.51 164.16 158.33 92.64 158.33 91.68 158.51 90.72 158.86 89.85 159.29 89.06 159.91 88.54 160.69 88.02 161.48 87.67 162.44 87.58 163.48 87.58 166.54 89.59 166.54 89.59 163.48"/></svg>