<svg xmlns="http://www.w3.org/2000/svg" viewBox="0 0 37.2 26.02"><g id="Layer_2" data-name="Layer 2"><g id="Layer_1-2" data-name="Layer 1"><path d="M36.23,19.53l-.07.37-.15.3-.3.23h-4.1v3.35l-3.06-3.06-.3-.29H15.43l-.3-.23L15,19.9l-.14-.37V7L15,6.63l.15-.29.3-.23L15.8,6H35.34l.37.07.3.23.15.29.07.38ZM13.94,7v8.35H9l-.3.22L5.59,18.71V15.36H1.86l-.37-.08-.3-.22L1,14.76,1,14.39V1.86L1,1.57l.15-.3L1.49,1,1.86,1H21.4l.37.07.3.23.15.3.07.29V5.14H15.8l-.37.08-.3.07-.59.38-.45.59Zm21.4-1.87H23.26V1.86l-.08-.37-.07-.37L22.74.6l-.6-.45L21.77.07,21.4,0H1.86L1.49.07l-.3.08L.6.6l-.45.52L0,1.86V14.39l.15.74.45.6.59.37.3.15H4.62V21l4.7-4.7h4.62v3.28l.15.75.45.59.59.38.3.07.37.08H27.88L32.5,26V21.4h2.84l.37-.08.37-.07.6-.38.37-.59.08-.38.07-.37V7l-.07-.38-.08-.37-.37-.59-.6-.38-.37-.07Z"/></g></g></svg>