<svg id="Layer_1" data-name="Layer 1" xmlns="http://www.w3.org/2000/svg" viewBox="0 0 263 263"><title>LOGOS</title><path d="M228.66,167.45l-.41,2.05-.82,1.64-1.65,1.24H203.19v18.48L186.35,174l-1.65-1.64H114l-1.64-1.24-.82-1.64-.83-2.05v-69l.83-2.05.82-1.65L114,93.5l2-.41H223.73l2.05.41,1.65,1.23.82,1.65.41,2.05Zm-122.84-69v46H78.3l-1.64,1.23L59.81,162.93V144.44H39.27L37.22,144l-1.65-1.23-.82-1.65-.41-2.05v-69l.41-1.64.82-1.64,1.65-1.24,2.05-.41H146.91l2.05.41,1.64,1.24.83,1.64.41,1.64V88.16H116.09l-2,.41L112.4,89l-3.29,2-2.46,3.29ZM223.73,88.16H157.18V70.08l-.41-2L156.36,66,154.3,63.1,151,60.63l-2-.41-2.05-.41H39.27l-2.05.41-1.65.41L32.29,63.1,29.82,66,29,70.08v69l.82,4.11,2.47,3.28,3.28,2.06,1.65.82H54.47v25.88l25.88-25.88h25.47v18.08l.83,4.11,2.46,3.28,3.29,2.06,1.64.41,2,.41h66.56l25.47,25.47V177.72h15.61l2.05-.41,2.06-.41,3.29-2.06,2.05-3.28.41-2.06.41-2.05v-69l-.41-2.05-.41-2.06L231.13,91l-3.29-2-2.06-.41Z"/></svg>