<svg id="Layer_1" data-name="Layer 1" xmlns="http://www.w3.org/2000/svg" viewBox="0 0 31.97 32"><defs><style>.cls-1{fill:#263959;}</style></defs><title>issft</title><path class="cls-1" d="M32,16A16,16,0,1,1,16,0,16,16,0,0,1,32,16ZM16,2.88A13.12,13.12,0,1,0,29.09,16,13.13,13.13,0,0,0,16,2.88Z"/><path class="cls-1" d="M14.53,11.64c0-1.34,0-2.69,0-4,0-1.15.54-1.8,1.47-1.79s1.42.66,1.42,1.76c0,2.25,0,4.5,0,6.75a1,1,0,0,0,.67,1.13c1.38.63,2.73,1.34,4.09,2,1,.5,1.31,1.25.9,2.07s-1.21,1-2.19.52c-1.78-.88-3.54-1.79-5.33-2.66a1.7,1.7,0,0,1-1-1.73C14.55,14.33,14.53,13,14.53,11.64Z"/></svg>