<svg id="Layer_1" data-name="Layer 1" xmlns="http://www.w3.org/2000/svg" viewBox="0 0 25.03 32"><defs><style>.cls-1{fill:#263959;}</style></defs><title>issft</title><path class="cls-1" d="M12.52,32c-.84-.73-1.67-1.42-2.47-2.15a41.6,41.6,0,0,1-5.81-6.41A23.94,23.94,0,0,1,.84,17.2,12.57,12.57,0,0,1,1.45,6.78,12.12,12.12,0,0,1,10.88.13a12,12,0,0,1,11.3,4.51,12,12,0,0,1,2.76,9.41,17.6,17.6,0,0,1-2.55,7,39.36,39.36,0,0,1-7.67,9.05C14,30.75,13.28,31.35,12.52,32ZM6.12,11.56A6.51,6.51,0,1,0,12.56,5,6.52,6.52,0,0,0,6.12,11.56Z"/></svg>