<svg id="Layer_1" data-name="Layer 1" xmlns="http://www.w3.org/2000/svg" viewBox="0 0 61.42 18.96"><defs><style>.cls-1{fill:#333;}</style></defs><title>issft</title><path class="cls-1" d="M61.34,15.71a3,3,0,0,1-2.94-3V10.92h2.9V7.7H58.4V.3H55.2V7.7H48.62a5.3,5.3,0,0,0-2,.4V5.77a2.24,2.24,0,0,1,2.23-2.24h4V.31h-4a5.46,5.46,0,0,0-5.42,5.63v13h3.2V12.25a2.2,2.2,0,0,1,2-1.33H55.2v1.82a6.17,6.17,0,0,0,6.14,6.19h.08V15.7Z"/><path class="cls-1" d="M32.42,0H21.26a9.38,9.38,0,0,0,0,18.75H32.41A9.38,9.38,0,0,0,32.42,0Zm.79,15.58H20.46c-2.88,0-5.22-2.78-5.23-6.2s2.35-6.21,5.23-6.21H33.21c2.89,0,5.23,2.78,5.23,6.21S36.1,15.58,33.21,15.58Z"/><path class="cls-1" d="M6.15,8.08c-3-1-2.91-2.26-2.89-2.67a2.18,2.18,0,0,1,2.33-2H8V.23H5.63A5.39,5.39,0,0,0,0,5.27C-.08,7.12.74,9.64,5.1,11.11c3,1,2.91,2.26,2.89,2.67a2.17,2.17,0,0,1-2.32,2H.61V19H5.67a5.38,5.38,0,0,0,5.57-5C11.33,12.07,10.51,9.55,6.15,8.08Z"/></svg>