<svg id="Layer_1" data-name="Layer 1" xmlns="http://www.w3.org/2000/svg" viewBox="0 0 65.78 51.09"><defs><style>.cls-1{fill:#37486e;}</style></defs><title>issft</title><path class="cls-1" d="M59.76,26.33h0a1.12,1.12,0,0,0-.72.54,2.57,2.57,0,0,0-.11,1.06V49.48h-52V28.38c0-.14,0-.27,0-.41a1.69,1.69,0,0,0-.06-.8,2.36,2.36,0,0,0-.6-.69l-.16-.14L6,26.47a4.72,4.72,0,0,0-.64.72,1.06,1.06,0,0,0,0,.45c0,.1,0,.2,0,.29V29.3q0,10.31,0,20.6c0,.31,0,.62,0,.94,0,.09,0,.17,0,.25h55a.59.59,0,0,0,0-.13,2.86,2.86,0,0,0,.07-.54V27.56a1.55,1.55,0,0,1,0-.21c0-.11,0-.31,0-.36S60,26.34,59.76,26.33Zm-3.36.36a1.54,1.54,0,0,0-1.16-.3c-9.2,0-18.86,0-28.72,0h0a1.44,1.44,0,0,0-1.07.29,1.54,1.54,0,0,0-.27,1.1c0,2.5,0,5,0,7.49v3.27c0,1.77,0,1.77,1.71,1.77H55c1.63,0,1.63,0,1.64-1.69,0-1.13,0-2.26,0-3.38,0-2.42,0-4.92,0-7.38A1.59,1.59,0,0,0,56.4,26.69ZM55.31,38.94H26.56V27.79H55.31ZM22.14,26.62a1.26,1.26,0,0,0-.95-.25c-3.76,0-7.23,0-10.6,0h-.05a1.33,1.33,0,0,0-1,.27,1.43,1.43,0,0,0-.27,1.05c0,2.2,0,4.44,0,6.61v5.21c0,2.16,0,4.39,0,6.59a1.45,1.45,0,0,0,.28,1,1.48,1.48,0,0,0,1,.28c3.43,0,7,0,10.45,0a1.55,1.55,0,0,0,1.07-.27,1.39,1.39,0,0,0,.28-1c0-5.72,0-11.79,0-18.55A1.31,1.31,0,0,0,22.14,26.62ZM21,46.05H10.7V27.72H21ZM65.3,16.39C63.45,11.65,61.81,7,59.85,1.44a1.78,1.78,0,0,0-2-1.44h0C42.8,0,26.46,0,7.9,0h0A1.63,1.63,0,0,0,6.06,1.23q-1.68,4.71-3.4,9.41Q1.45,14,.25,17.29A3.81,3.81,0,0,0,0,18.76,6.09,6.09,0,0,0,2.47,23.2,5.55,5.55,0,0,0,7,24.2a11.87,11.87,0,0,0,3.14-1.43c.49-.28,1-.57,1.52-.83l.17-.08L12,22a6.55,6.55,0,0,0,4.58,2.41c1.76.05,3.63-.89,5.53-2.76l.21-.2.17.23a6.16,6.16,0,0,0,5.07,2.67,6.33,6.33,0,0,0,5.19-2.68l.18-.22.2.21c3.34,3.58,6.45,3.59,10.42,0l.18-.16.17.17c1.68,1.78,3.3,2.66,5,2.69s3.42-.81,5.26-2.6l.15-.15.17.12c.3.22.6.46.9.69a11.81,11.81,0,0,0,1.93,1.32,5.82,5.82,0,0,0,6.68-1.1A5.33,5.33,0,0,0,65.3,16.39ZM11,16.94c-.08.36-.14.72-.2,1.08a14,14,0,0,1-.27,1.38,4.49,4.49,0,0,1-4,3.36H6.08A4.41,4.41,0,0,1,2,20a3.94,3.94,0,0,1-.12-2.42C3.39,13.18,5.1,8.47,7.24,2.79A1.92,1.92,0,0,1,8.61,1.65c1.28-.08,2.57-.07,3.94-.06h1.89l-1,4.24C12.62,9.61,11.79,13.27,11,16.94ZM21.5,17q0,.76-.12,1.53a4.65,4.65,0,0,1-1.79,3.33,4.6,4.6,0,0,1-6.49-1,4.7,4.7,0,0,1-.57-3.69l.7-3c.84-3.66,1.71-7.44,2.51-11.16.23-1,.69-1.41,1.72-1.37s2.18,0,3.33,0h1.84Zm10.58,1.39a4.39,4.39,0,0,1-1.37,3.17,4.52,4.52,0,0,1-3.13,1.23h-.19a4.55,4.55,0,0,1-3.2-1.48A4.74,4.74,0,0,1,23,17.9c0-.8.1-1.62.17-2.41l.09-1.12.95-12.71H31.8l.07.14c0,.05.05.09.07.14a.7.7,0,0,1,.14.38c0,1.32,0,2.64,0,4C32.11,10.24,32.13,14.34,32.08,18.37Zm6.51,4.39h-.34a4.72,4.72,0,0,1-3.12-1.19,3.89,3.89,0,0,1-1.32-2.78c-.09-4-.07-8-.05-12,0-1.63,0-3.26,0-4.9V1.68H41.6L41.78,4c.14,1.72.27,3.43.4,5.13.06.82.13,1.63.19,2.44.17,2.09.34,4.24.46,6.37A4.52,4.52,0,0,1,38.59,22.76Zm14.28-2.08a4.74,4.74,0,0,1-3,2,4.8,4.8,0,0,1-.85.08,4.7,4.7,0,0,1-2.83-1,4,4,0,0,1-1.6-2.8c-.37-4.06-.66-8.19-.93-12.19-.1-1.51-.2-3-.31-4.54A.58.58,0,0,1,43.4,2l.1-.19.07-.15H45c1.29,0,2.62,0,3.95,0a1.45,1.45,0,0,1,1,1c1.14,4.82,2.35,10,3.49,15.19A3.7,3.7,0,0,1,52.87,20.68Zm9.91.89a4.29,4.29,0,0,1-3,1.22A5,5,0,0,1,58,22.41a4.34,4.34,0,0,1-2.71-3.2Q53.43,10.87,51.6,2.53a1.42,1.42,0,0,1,0-.37,2.63,2.63,0,0,0,0-.3V1.61h1.72c1.36,0,2.65,0,3.95,0a1.66,1.66,0,0,1,1.25.91c2.06,5.5,3.88,10.48,5.56,15.21C64.54,19.08,64.1,20.36,62.78,21.57Z"/></svg>