<svg xmlns="http://www.w3.org/2000/svg" viewBox="0 0 30 28.26"><g id="Layer_2" data-name="Layer 2"><g id="Layer_1-2" data-name="Layer 1"><path class="" d="M29.13,12v.33l-.13.33-.34.54-.53.33-.33.14H26.59l-.46-.07-.47-.13-.4-.2L24.92,13l-.33-.4-.2-.4-.14-.47-.13-.47V9.55L22.18.8h4.55l2.4,8.82ZM27.46,27.46H24.59V17H15.84V27.46H2.47V14.57h.94l.87-.14.8-.33.67-.54.53-.73.54.73.66.54.81.33.86.14h.07l.87-.14.8-.33.67-.54.53-.73.54.73.67.54.8.33.87.14H15l.87-.14.8-.33.67-.54.54-.73.53.73.67.54.8.33.87.14h.07l.93-.14.74-.33.66-.54.54-.73.53.73.67.54.87.33.8.14h.87Zm-10.82,0V17.84h7.08v9.62ZM5.81,9.55v2.21l-.13.47-.27.4-.27.4-.4.27-.4.2-.46.13-.47.07H2.14l-.27-.14-.53-.33L1,12.69l-.13-.33V9.62L3.27.8H7.82L5.88,9.49ZM12.49.8l-.86,8.75v2.21l-.14.47-.27.4L11,13l-.34.27-.46.2-.47.13-.47.07H9.15l-.53-.07-.4-.13-.47-.2L7.42,13l-.34-.4-.2-.4-.13-.47-.07-.47V9.62L8.69.8Zm5,10.49-.07.47-.13.47-.27.4-.27.4-.33.27-.4.2-.47.13L15,13.7H15l-.47-.07L14,13.5l-.4-.2-.4-.27-.27-.4-.27-.4-.13-.47-.07-.47V9.55L13.3.8h3.4l.81,8.75Zm.8-1.8L17.51.8h3.8l2,8.82v1.67l-.07.47-.13.47-.2.4-.34.4-.33.27-.4.2-.47.13-.53.07h-.07l-.47-.07-.47-.13-.4-.2L19,13l-.26-.4-.27-.4-.14-.47-.06-.47V9.49ZM27.39,0H2.61L0,9.42V12l.13.8.34.67L1,14l.67.4V28.26H28.33V14.43L29,14l.53-.53.34-.67L30,12V9.55Z"/><path class="" d="M6.28,17.84h5.35v5.41H6.28Zm-.87,6.28h7.08V17H5.41Z"/></g></g></svg>