<svg id="Layer_1" data-name="Layer 1" xmlns="http://www.w3.org/2000/svg" viewBox="0 0 37.27 32"><defs><style>.cls-1{fill:#263959;}</style></defs><title>issft</title><path class="cls-1" d="M18.63,0C22.07,0,25.51,0,29,0a8.17,8.17,0,0,1,8.31,8.33c0,2.79,0,5.59,0,8.38a8.12,8.12,0,0,1-5.63,7.9c-.66.23-.58.45-.34.92.76,1.46,1.48,2.94,2.22,4.41a1.32,1.32,0,0,1-.12,1.7,1.36,1.36,0,0,1-1.71.09q-6.21-3.12-12.43-6.24a4,4,0,0,0-1.85-.43q-4.45,0-8.91,0A8.23,8.23,0,0,1,0,16.63q0-4.15,0-8.29A8.16,8.16,0,0,1,8.31,0C11.75,0,15.19,0,18.63,0ZM29.45,27.78s.11.11.12.1.05-.14,0-.2c-.5-1-1-2.05-1.48-3.09s-.08-1.9,1.16-2a5.72,5.72,0,0,0,5.54-5.91c0-2.77,0-5.53,0-8.3a5.66,5.66,0,0,0-5.88-5.89q-10.25,0-20.48,0A5.67,5.67,0,0,0,2.49,8.44c0,2.7,0,5.41,0,8.11a5.75,5.75,0,0,0,6,6.05c3.06,0,6.12,0,9.18,0a5.13,5.13,0,0,1,2.43.59C23.24,24.73,26.35,26.25,29.45,27.78Z"/><path class="cls-1" d="M29.55,27.68c.07.06.14.12,0,.2s-.08-.07-.12-.1Z"/><path class="cls-1" d="M11.67,12.48a1.79,1.79,0,0,1-1.78,1.81,1.9,1.9,0,0,1-1.71-1.82,1.85,1.85,0,0,1,1.73-1.68A1.7,1.7,0,0,1,11.67,12.48Z"/><path class="cls-1" d="M27.33,10.79a1.83,1.83,0,0,1,1.75,1.74,1.89,1.89,0,0,1-1.76,1.76,1.78,1.78,0,0,1-1.72-1.77A1.7,1.7,0,0,1,27.33,10.79Z"/><path class="cls-1" d="M20.33,12.57a1.7,1.7,0,1,1-1.65-1.78A1.69,1.69,0,0,1,20.33,12.57Z"/></svg>