<svg id="Layer_1" data-name="Layer 1" xmlns="http://www.w3.org/2000/svg" viewBox="0 0 56.56 58.58"><defs><style>.cls-1{fill:#37486e;}</style></defs><title>issft</title><path class="cls-1" d="M18.63,51.46a.75.75,0,0,1,.69-.47,1.34,1.34,0,0,1,.35,0,43.08,43.08,0,0,1,16.1,7.2,1.29,1.29,0,0,0,1,.32,1.23,1.23,0,0,0,.7-.77L52.75,23.15,56.35,15a1.32,1.32,0,0,0-.06-1.53,25.22,25.22,0,0,0-4.94-4.68A54.9,54.9,0,0,0,33.17.52,13.4,13.4,0,0,0,26.72.29a2.78,2.78,0,0,0-2.36,2.44c-.2,1.12-.45,2.21-.71,3.37-.12.5-.24,1-.35,1.54l-.06.25L23,7.81l-1-.32c-.7-.23-1.35-.45-2-.69Q14.18,4.63,8.34,2.41a.86.86,0,0,0-1.14.23,1,1,0,0,0-.12,1.17,4.26,4.26,0,0,1,.47,1.41l0,.38c.18,2,.36,4.12.43,6.18.25,7.09-.34,12.44-1.9,17.34-.76,2.4-1.49,4.85-2.19,7.22-.39,1.32-.78,2.64-1.18,4C1.86,43.21,1,46.11.06,49a1.08,1.08,0,0,0,.38,1.22,20.52,20.52,0,0,0,9.19,5.13C14,56.49,16.43,55.43,18.63,51.46Zm8.1-48.85a1.26,1.26,0,0,1,1-.53,20.78,20.78,0,0,1,7.06,1A47.9,47.9,0,0,1,48.63,9.15,29.88,29.88,0,0,1,54,13.71a1.08,1.08,0,0,1,.22,1.35q-2,4.53-4,9.08l-13.65,31-.22.47-.23.5L35.9,56A44.22,44.22,0,0,0,20,49.14l-.25,0,.07-.25c.11-.37.22-.73.32-1.08.23-.77.44-1.5.68-2.23l2.4-7.2c1.56-4.68,3.17-9.52,4.71-14.29,1.15-3.55,2.12-7.09,3-10.38a13.94,13.94,0,0,0,.35-2.33c.05-.48.1-1,.18-1.47a2.14,2.14,0,0,0-.58-1.56l-.08-.11c-.66-.94-1.43-1.84-2.18-2.71L28.18,5a5.78,5.78,0,0,0-.55-.56,6.62,6.62,0,0,1-.69-.71A1.28,1.28,0,0,1,26.73,2.61ZM25.58,6.23l.25-1L29.74,9.3l-.6,0h-.42a3.1,3.1,0,0,1-.64-.06c-.95-.21-1.72-.4-2.42-.6a.76.76,0,0,1-.47-.7C25.29,7.34,25.43,6.8,25.58,6.23Zm-9,44.92a4,4,0,0,1-3.8,2.48h0a13.44,13.44,0,0,1-3.6-.47,18.05,18.05,0,0,1-6.61-3.59,1,1,0,0,1-.38-1.2C3.75,43.56,5.52,38.11,7.23,32.7A59.08,59.08,0,0,0,10,11.37c-.07-1.33,0-2.64,0-4,0-.62,0-1.26,0-1.89V5.11l1.15.45c.64.25,1.3.51,2,.75l2.8,1c1.81.66,3.68,1.34,5.5,2.05a28.43,28.43,0,0,0,6.39,1.68l.89.07.57,0,.27,0-.06.27c-.12.49-.22,1-.32,1.44a31,31,0,0,1-.75,3c-2.28,7.24-4.65,14.59-6.94,21.7l-.1.29c-1,3.25-2.07,6.43-3.17,9.6a32,32,0,0,1-1.42,3.35Z"/></svg>