<svg id="Layer_1" data-name="Layer 1" xmlns="http://www.w3.org/2000/svg" viewBox="0 0 263 263"><title>LOGOS</title><path d="M113.11,171.81h-47c-7.67,0-10.11-2.44-10.11-10V70.49c0-7.06,2.68-9.74,9.62-9.74H197.5c6.82,0,9.5,2.68,9.5,9.62v92.06c0,6.94-2.56,9.38-9.62,9.38H149.89c1.22,5,2.19,9.37,3.41,13.76.12.61,1.22,1.22,1.95,1.46a5.53,5.53,0,0,0,2.43,0c10.11-.73,9.38,4.14,8.77,11.08-.24,3.17-2.92,4.14-6,4.14H102.4c-4.27,0-6-1.83-6.09-6v-3.53c.12-3.77,1.82-5.48,5.6-5.72,7.55-.49,7.55-.49,9.38-7.79C112,176.92,112.5,174.61,113.11,171.81Zm-52-20.46H201.89c.12-1.34.12-2.31.12-3.29V70.73c0-4.5-.37-4.87-5-4.87H66.23c-4.75,0-5.12.37-5.12,5.24v80.25Zm.25,5.6c-.12,1.22-.12,2.07-.25,2.8-.12,6.94-.12,6.94,6.82,6.94H193.85c8.77,0,9-.24,8-9.13,0-.24-.25-.37-.49-.73Q131.62,157,61.36,157Zm87.07,30c-1.1-4.63-2.07-9-3.29-13.4a2.93,2.93,0,0,0-2.19-1.58q-11.32-.18-22.65,0a2.35,2.35,0,0,0-2,1.34c-1.22,4.38-2.32,8.89-3.41,13.52C126.26,186.91,137.1,186.91,148.43,186.91Zm13.15,10v-4.62H101.79v4.62Z"/><rect x="113.84" y="63.31" width="5.6" height="89.5"/><rect x="56.12" y="105.2" width="60.52" height="5.6"/><path d="M88.51,106.29H76.82c-1.21,0-1.46-.24-1.46-1.46V100.2a8.08,8.08,0,0,1,8.16-8.15H93.63a8.08,8.08,0,0,1,8.16,8.15v4.88c0,1-.37,1.33-1.34,1.33C96.43,106.29,92.53,106.29,88.51,106.29Z"/><path d="M81.45,82.79A7.13,7.13,0,1,1,88.51,90,7.12,7.12,0,0,1,81.45,82.79Z"/><path d="M88.51,152.32H76.82c-1.21,0-1.46-.24-1.46-1.46v-4.63a8.08,8.08,0,0,1,8.16-8.15H93.63a8.08,8.08,0,0,1,8.16,8.15v4.88c0,1-.37,1.34-1.34,1.34C96.43,152.32,92.53,152.32,88.51,152.32Z"/><path d="M81.45,128.82A7.13,7.13,0,1,1,88.51,136,7.26,7.26,0,0,1,81.45,128.82Z"/><path d="M161.21,87.42h18A8.48,8.48,0,0,1,187.76,98a1.82,1.82,0,0,1-1.1,1.22,7.67,7.67,0,0,0-5.23,6.09c-.49,2.43-1,4.75-1.46,7.18a2.16,2.16,0,0,1-2.44,2.07H145.26a2.14,2.14,0,0,1-2.43-2.07c-.49-2.43-1-4.75-1.47-7.18A8,8,0,0,0,135.52,99a2,2,0,0,1-1.1-1.1,8.49,8.49,0,0,1,7.19-10.35,13.4,13.4,0,0,1,2.19-.12Z"/><path d="M161.46,125.9h-23c-5.36,0-8.64-3.05-9-8.4-.24-3.66-.61-7.31-.73-11a5.42,5.42,0,0,1,6-5.61,5.56,5.56,0,0,1,4.75,4.63c.48,2.44,1,4.87,1.46,7.31s1.82,3.65,4.38,3.65h32.51A4,4,0,0,0,182,113c.48-2.44,1-4.87,1.46-7.31a5.41,5.41,0,0,1,6.09-4.62,5.32,5.32,0,0,1,4.62,5.84c-.24,3.9-.48,7.92-.85,11.81-.36,4.14-3.9,7.19-8.4,7.19h-23.5Z"/><path d="M143.19,128c-.49,1.7-.73,3.16-1.22,4.5a2.89,2.89,0,0,1-3.65,1.47,3.15,3.15,0,0,1-2.07-3.29c0-.12,0-.25.12-.25.49-2.43.49-2.43,2.92-2.43Z"/><path d="M179.84,128h5.61a.92.92,0,0,1,.6.24c.61.61.86,3.41.37,4.26a3,3,0,0,1-5.72-1C180.45,130.4,180.21,129.31,179.84,128Z"/></svg>