<svg version="1.1" id="Layer_1" xmlns="http://www.w3.org/2000/svg" xmlns:xlink="http://www.w3.org/1999/xlink" x="0px" y="0px"viewBox="0 0 180 180" style="enable-background:new 0 0 180 180;" xml:space="preserve"><g><g><path d="M83.5,126.2c-1.4,0-2.5,0-3.5,0c-11.7,0-23.4,0-35.1,0c-6.3,0-8.3-2-8.3-8.2c0-25,0-50,0-75c0-5.8,2.2-8,7.9-8c36.1,0,72.2,0,108.3,0c5.6,0,7.8,2.2,7.8,7.9c0,25.2,0,50.4,0,75.6c0,5.7-2.1,7.7-7.9,7.7c-11.9,0-23.8,0-35.6,0c-1,0-2,0-3.4,0c1,4.1,1.8,7.7,2.8,11.3c0.1,0.5,1,1,1.6,1.2c0.6,0.2,1.3,0.1,2,0c8.3-0.6,7.7,3.4,7.2,9.1c-0.2,2.6-2.4,3.4-4.9,3.4c-11.7,0-23.4,0-35.1,0c-4.2,0-8.4,0-12.6,0c-3.5,0-4.9-1.5-5-4.9c0-1,0-1.9,0-2.9c0.1-3.1,1.5-4.5,4.6-4.7c6.2-0.4,6.2-0.4,7.7-6.4C82.6,130.4,83,128.5,83.5,126.2z M40.8,109.4c38.8,0,77.1,0,115.6,0c0.1-1.1,0.1-1.9,0.1-2.7c0-21.2,0-42.3,0-63.5c0-3.7-0.3-4-4.1-4c-35.8,0-71.6,0-107.4,0c-3.9,0-4.2,0.3-4.2,4.3c0,21,0,41.9,0,62.9C40.8,107.3,40.8,108.3,40.8,109.4z M41,114c-0.1,1-0.1,1.7-0.2,2.3c-0.1,5.7-0.1,5.7,5.6,5.7c34.5,0,69,0,103.4,0c7.2,0,7.4-0.2,6.6-7.5c0-0.2-0.2-0.3-0.4-0.6C117.8,114,79.5,114,41,114z M112.5,138.6c-0.9-3.8-1.7-7.4-2.7-11c-0.2-0.6-1.2-1.3-1.8-1.3c-6.2-0.1-12.4-0.1-18.6,0c-0.6,0-1.5,0.6-1.6,1.1c-1,3.6-1.9,7.3-2.8,11.1C94.3,138.6,103.2,138.6,112.5,138.6z M123.3,146.8c0-1.5,0-2.6,0-3.8c-16.5,0-32.8,0-49.1,0c0,1.4,0,2.6,0,3.8C90.6,146.8,106.9,146.8,123.3,146.8z"/></g><g><rect x="84.1" y="37.1" width="4.6" height="73.5"/></g><g><rect x="36.7" y="71.5" width="49.7" height="4.6"/></g><g><g><path d="M63.3,72.4c-3.2,0-6.4,0-9.6,0c-1,0-1.2-0.2-1.2-1.2c0-1.3,0-2.6,0-3.8c0-3.8,3-6.7,6.7-6.7c2.8,0,5.5,0,8.3,0c3.7,0,6.7,2.9,6.7,6.7c0,1.3,0,2.7,0,4c0,0.8-0.3,1.1-1.1,1.1C69.8,72.4,66.6,72.4,63.3,72.4z"/></g><g><path d="M57.5,53.1c0-3.3,2.6-5.9,5.9-5.9c3.2,0,5.8,2.6,5.8,5.9c0,3.3-2.6,5.9-5.9,5.9C60.1,59,57.5,56.4,57.5,53.1z"/></g></g><g><g><path d="M63.3,110.2c-3.2,0-6.4,0-9.6,0c-1,0-1.2-0.2-1.2-1.2c0-1.3,0-2.6,0-3.8c0-3.8,3-6.7,6.7-6.7c2.8,0,5.5,0,8.3,0c3.7,0,6.7,2.9,6.7,6.7c0,1.3,0,2.7,0,4c0,0.8-0.3,1.1-1.1,1.1C69.8,110.2,66.6,110.2,63.3,110.2z"/></g><g><path d="M57.5,90.9c0-3.3,2.6-5.9,5.9-5.9c3.2,0,5.8,2.6,5.8,5.9c0,3.3-2.6,5.9-5.9,5.9C60.1,96.7,57.5,94.1,57.5,90.9z"/></g></g><path d="M123,56.9c4.9,0,9.8,0,14.8,0c4.8,0,8,4,7,8.7c-0.1,0.4-0.5,0.9-0.9,1c-2.4,0.9-3.8,2.5-4.3,5c-0.4,2-0.8,3.9-1.2,5.9c-0.2,1.2-0.8,1.7-2,1.7c-8.8,0-17.6,0-26.5,0c-1.2,0-1.8-0.5-2-1.7c-0.4-2-0.8-3.9-1.2-5.9c-0.6-2.7-2.2-4.4-4.8-5.2c-0.4-0.1-0.8-0.6-0.9-0.9c-1-4,1.8-7.9,5.9-8.5c0.6-0.1,1.2-0.1,1.8-0.1C113.5,56.9,118.3,56.9,123,56.9z"/><path d="M123.2,88.5c-6.3,0-12.6,0-18.9,0c-4.4,0-7.1-2.5-7.4-6.9c-0.2-3-0.5-6-0.6-9c-0.1-2.8,2.2-4.8,4.9-4.6c1.9,0.2,3.5,1.7,3.9,3.8c0.4,2,0.8,4,1.2,6c0.4,2,1.5,3,3.6,3c8.9,0,17.8,0,26.7,0c2,0,3.1-1,3.5-2.9c0.4-2,0.8-4,1.2-6c0.5-2.6,2.6-4.1,5-3.8c2.3,0.3,4,2.3,3.8,4.8c-0.2,3.2-0.4,6.5-0.7,9.7c-0.3,3.4-3.2,5.9-6.9,5.9c-4.6,0-9.2,0-13.8,0C126.9,88.5,125,88.5,123.2,88.5z"/><path d="M108.2,90.2c-0.4,1.4-0.6,2.6-1,3.7c-0.4,1.1-1.8,1.6-3,1.2c-1.1-0.4-1.9-1.6-1.7-2.7c0-0.1,0-0.2,0.1-0.2c0.4-2,0.4-2,2.4-2C106,90.2,107,90.2,108.2,90.2z"/><path d="M138.3,90.2c1.6,0,3.1,0,4.6,0c0.2,0,0.4,0.1,0.5,0.2c0.5,0.5,0.7,2.8,0.3,3.5c-0.5,1-1.4,1.5-2.5,1.4c-1.1-0.1-1.9-0.8-2.2-2.2C138.8,92.2,138.6,91.3,138.3,90.2z"/></g></svg>