<svg xmlns="http://www.w3.org/2000/svg" viewBox="0 0 37.2 37.2"><g id="Layer_2" data-name="Layer 2"><g id="Layer_1-2" data-name="Layer 1"><path d="M34.38,22.71l-.32.4-.24.4-.08.48.08.49.72,1.77.08.16-.08.16-.24.24h-.08l-1.85.49-.48.24-.33.4-.24.4v.49l.08,1.93-.08.16-.08.16-.16.16h-.16L29,31.16l-.49.08L28,31.4l-.32.4-.24.49L27,34.06l-.08.24-.16.08-.32.08h-.08l-1.77-.72-.48-.08-.49.08-.48.24-.32.32-1.13,1.61-.24.24h-.16L21,36.07V36l-1.45-1.21-.41-.24-.56-.08-.48.08-.41.24L16.26,36l-.4.16L15.62,36l-.08-.08-1-1.61L14.17,34l-.48-.24-.48-.08-.49.08L11,34.46l-.16.08-.16-.08-.24-.24v-.08l-.57-1.85-.16-.49-.32-.32-.48-.24H8.37l-1.93.08-.16-.08-.16-.08L6,31,6,30.84,6,28.91v-.49l-.24-.48-.41-.32L5,27.38l-1.93-.49-.16-.08-.08-.16-.08-.16.08-.24.64-1.77L3.54,24v-.48L3.3,23,3,22.71,1.29,21.66l-.16-.32v-.16L1.21,21v-.08l1.21-1.45.32-.41.08-.48-.08-.48-.32-.49L1.21,16.18l-.08-.32V15.7l.16-.16,1.69-1,.32-.32.24-.48.08-.4-.16-.57L2.82,11l-.08-.16.08-.32.08-.08.16-.16L5,9.82l.4-.16.41-.4L6,8.86V8.29L6,6.44V6.2L6.12,6,6.28,6l.16-.08L8.37,6,8.86,6l.48-.24.32-.32.16-.49.57-1.85.08-.16.16-.16H11l1.77.72.49.08.48-.08.4-.16.32-.4,1-1.61.32-.16L16,1.05l.16.08v.08h.08l1.45,1.21.41.24.48.08.56-.08.41-.24L21,1.21l.32-.08.32.08v.08L22.79,2.9l.32.4.4.24.57.08.48-.16,1.69-.72h.4l.24.24v.08l.49,1.85.24.49.32.32.4.24.57.08,1.85-.16L31,6l.16.08.08.24.08.16-.16,1.85.08.57.24.4.32.4.49.16,1.85.49.16.08.16.16.08.16-.08.24V11l-.64,1.69-.08.57.08.48.16.4.32.32,1.61,1,.24.24V16l-.08.16-1.21,1.45-.24.49-.08.48.08.48.24.41,1.21,1.45.16.24v.16l-.08.16-.16.16-.08.08-.16.16-.56.32-.57.33-.16.16Zm1.29-3.87-.08-.24.08-.32,1.21-1.45.24-.56V15.7L37,15.22l-.4-.48h-.08l-.09-.09-1.61-1-.16-.24V13l.73-1.77.08-.56-.16-.56L35,9.74l-.49-.32-.08-.08h-.08l-1.85-.48-.24-.16-.08-.41.08-1.85-.08-.56-.32-.48-.41-.33-.56-.16h-.16L28.83,5l-.33-.08-.16-.32-.56-1.85-.16-.49-.49-.4-.48-.16H26l-.16.08-1.77.73h-.25l-.32-.25-1-1.61-.41-.4L21.58,0H21l-.57.24h-.08l-.08.08L18.84,1.53l-.24.08-.32-.08L16.75.32,16.26.08,15.7,0l-.48.16-.48.32-.09.08-.08.08-1,1.61-.24.25H13l-1.77-.73-.56-.16-.56.16-.49.32-.32.49v.16L8.78,4.59l-.08.32L8.29,5,6.36,4.91,5.8,5l-.49.24L5,5.72l-.16.56v.16L5,8.29l-.16.33-.24.24-1.85.48-.49.24-.4.4-.16.57v.72L2.42,13l.08.33-.25.24-1.61,1L.24,15,0,15.54v.56l.16.57.08.08.08.08,1.13,1.45.16.32-.16.24L.32,20.29,0,20.85v.57l.16.48.32.48.08.08H.64l1.61,1.05.17.24v.33l-.73,1.77v.56l.08.56.32.49.49.24.08.08h.08l1.85.48.24.24.16.33-.16,1.85.08.56.32.56.49.33.56.16h.08l1.93-.16.33.16.16.24.56,1.85.24.56.4.33.57.16h.56l.08-.08h.08L13,34.62h.33l.24.24,1,1.62.49.48.56.16h.56l.49-.16.08-.08V36.8l1.53-1.21.32-.08.24.08,1.45,1.21.4.24.57.16h.24l.56-.24.49-.48,1-1.54.32-.24h.25l1.77.73.64.08.48-.08.49-.32.32-.57v-.16l.56-1.85.16-.24.33-.08,1.93.08h.56L31.8,32l.33-.49.16-.56v-.16l-.08-1.93.08-.25.24-.24,1.85-.48.56-.24.33-.48.24-.49L35.43,26v-.16l-.73-1.69v-.33l.16-.24,1.61-1,.49-.41.16-.56L37.2,21,37,20.45l-.08-.08-.16-.16-.41-.56-.48-.57-.08-.16Z"/><path d="M18.6,30.11,17.47,30l-1.12-.16-1.13-.32-1.05-.32-1.05-.48-.88-.65-1-.64-.8-.73-.73-.8L9.1,25l-.57-1L8,23,7.65,22l-.32-1-.16-1.21-.08-1.21.08-1.13.16-1.12.32-1.13L8,14.09,8.53,13l.57-.88.64-1,.73-.8.8-.73,1-.64.88-.57,1.05-.56,1.05-.32,1.13-.32,1.12-.16L18.6,7l1.21.08L21,7.25l1,.32,1.05.32,1.05.56,1,.57.89.64.8.73.73.8.64,1,.57.88.56,1.05.32,1.05L30,16.27l.16,1.12.08,1.13-.08,1.21L30,20.94l-.32,1L29.31,23l-.56,1-.57,1-.64.89-.73.8-.8.73-.89.64-1,.65-1.05.48-1.05.32-1,.32L19.81,30ZM18.6,6l-1.21.08-1.29.16-1.2.32L13.77,7l-1.13.56-1,.56-1,.73-.81.88-.88.81-.73,1-.56,1-.56,1.13-.41,1.13L6.36,16,6.2,17.31l-.08,1.21.08,1.29.16,1.29.32,1.2.41,1.13.56,1.13.56,1,.73,1,.88.89.81.8,1,.73,1,.56,1.13.56,1.13.41,1.2.32,1.29.16,1.21.08L19.89,31l1.29-.16,1.2-.32,1.13-.41,1.13-.56L25.69,29l1-.73.89-.8.8-.89.73-1,.56-1,.56-1.13.41-1.13.32-1.2.16-1.29.08-1.29-.08-1.21L30.92,16l-.32-1.2-.41-1.13-.56-1.13-.56-1-.73-1-.8-.81-.89-.88-1-.73-1.05-.56L23.51,7,22.38,6.6l-1.2-.32-1.29-.16Z"/><polygon points="17.15 21.34 12.96 17.23 12.24 17.96 17.15 22.79 25.52 14.41 24.8 13.69 17.15 21.34"/></g></g></svg>