<svg id="Layer_1" data-name="Layer 1" xmlns="http://www.w3.org/2000/svg" viewBox="0 0 263 263"><title>LOGOS</title><path d="M203.71,154l-1.47,1.84-1.1,1.84-.37,2.21.37,2.21,3.31,8.11.37.74-.37.73-1.1,1.11H203L194.5,175l-2.21,1.1L190.82,178l-1.11,1.85V182l.37,8.84-.37.74-.37.73-.73.74h-.74l-8.84-.37-2.21.37-2.21.74-1.48,1.84-1.1,2.21L169.82,206l-.37,1.1-.74.37-1.47.37h-.37l-8.1-3.32-2.22-.36-2.21.36-2.21,1.11-1.47,1.47-5.16,7.37-1.1,1.1h-.74l-1.11-.36v-.37l-6.63-5.53-1.84-1.1-2.58-.37-2.21.37-1.84,1.1-6.64,5.53-1.84.73-1.1-.73-.37-.37-4.79-7.37-1.47-1.47L109,204.5l-2.21-.36-2.21.36-8.11,3.32-.74.37-.74-.37-1.1-1.11v-.37l-2.58-8.47-.74-2.21-1.47-1.48-2.21-1.1H84.71l-8.84.37-.74-.37-.74-.37L74,192l-.36-.74L74,182.4v-2.22L72.92,178l-1.84-1.47-1.85-1.11-8.84-2.2-.74-.37-.36-.74-.37-.74.37-1.1,2.94-8.11.37-2.21v-2.21l-1.1-2.21L60,154l-7.73-4.79-.74-1.48V147l.37-.74v-.37l5.52-6.63,1.48-1.84.37-2.21L58.92,133l-1.48-2.2-5.52-6.64-.37-1.47V122l.74-.73L60,116.45,61.5,115l1.1-2.21.37-1.84-.74-2.58-2.94-7.74-.37-.73.37-1.48.36-.36.74-.74,8.84-2.21,1.85-.74,1.84-1.84L74,90.66V88.08l-.36-8.48V78.5l.73-.74.74-.37.74-.37,8.84.74,2.21-.37,2.21-1.1,1.47-1.48.74-2.21,2.58-8.47.37-.74.73-.73h1.85L105,66l2.21.37,2.21-.37,1.85-.73,1.47-1.85L117.5,56l1.47-.74.74-.36.74.36v.37h.36l6.64,5.53,1.84,1.11,2.21.37,2.58-.37,1.84-1.11,6.63-5.53,1.48-.37,1.47.37V56l5.16,7.37,1.47,1.85,1.84,1.1,2.58.37,2.22-.74,7.73-3.31h1.84l1.11,1.1v.37l2.21,8.47,1.1,2.21,1.48,1.48,1.84,1.1,2.58.37,8.47-.74,1.11.37.74.37.36,1.1.37.74L189,88.08l.36,2.58,1.11,1.84,1.47,1.84,2.22.74,8.47,2.21.74.36.73.74.37.74-.37,1.11v.36l-2.94,7.74-.37,2.58.37,2.21.73,1.84,1.48,1.48,7.36,4.79,1.11,1.1v1.11l-.37.73-5.53,6.64-1.1,2.2-.37,2.22.37,2.21,1.1,1.84,5.53,6.63.74,1.11v.73l-.37.74-.74.74-.37.37-.73.73-2.58,1.47-2.58,1.48-.74.74Zm5.9-17.69-.37-1.1.37-1.48,5.53-6.63,1.1-2.58V122l-.37-2.21L214,117.55h-.37l-.37-.37-7.37-4.79-.73-1.1v-1.48l3.31-8.1.37-2.58-.74-2.58-1.47-1.84-2.21-1.47-.37-.38h-.37l-8.47-2.2-1.1-.74-.37-1.84.37-8.48L193.77,77l-1.48-2.21-1.84-1.47-2.58-.74h-.74l-8.84.37-1.47-.37-.74-1.47-2.58-8.47-.74-2.22-2.21-1.84-2.21-.74H165.4l-.74.37-8.11,3.32h-1.1L154,60.44l-4.42-7.36-1.84-1.85-2.58-1.1h-2.58L140,51.23h-.36l-.37.37-6.63,5.53-1.11.37L130,57.13l-7-5.53-2.22-1.1-2.57-.37-2.21.73-2.21,1.48-.37.37-.37.37-4.42,7.36-1.11,1.11h-1.47L98,58.23l-2.58-.73-2.58.73L90.6,59.71l-1.47,2.2v.75l-2.58,8.47-.37,1.47L84.34,73,75.5,72.6,72.92,73l-2.21,1.1-1.48,2.22-.73,2.57v.74l.73,8.48-.73,1.47-1.11,1.11-8.47,2.2L56.71,94l-1.84,1.84-.74,2.58v3.32l3.31,8.1.37,1.48-1.1,1.1-7.37,4.43-1.84,1.84-1.11,2.58v2.57l.74,2.58.37.37.36.37L53,133.76l.74,1.48-.74,1.1L47.86,143l-1.47,2.57v2.58l.74,2.21,1.47,2.21.37.37h.37l7.37,4.79.73,1.11v1.47l-3.31,8.11V171l.37,2.57L56,175.77l2.21,1.1.37.37h.37l8.47,2.21,1.11,1.1.73,1.48-.73,8.47.37,2.58,1.47,2.58,2.21,1.47,2.58.74h.37l8.84-.74,1.47.74.74,1.11,2.58,8.47L90.24,210l1.84,1.47,2.58.74h2.57l.37-.37H98l8.11-3.31h1.47l1.11,1.1,4.42,7.37,2.21,2.21,2.58.74h2.58l2.21-.74.37-.37v-.37l7-5.52,1.47-.37,1.11.37,6.63,5.52,1.84,1.11,2.58.73h1.1l2.58-1.1,2.21-2.21,4.42-7,1.48-1.11h1.1l8.11,3.32,3,.37,2.21-.37,2.21-1.47,1.47-2.58v-.74l2.58-8.47.74-1.11,1.47-.37,8.84.37h2.58l2.21-1.47,1.48-2.22.74-2.57v-.74l-.37-8.84.37-1.11,1.1-1.1,8.47-2.21,2.58-1.11,1.48-2.21,1.1-2.21-.37-3v-.73l-3.31-7.74v-1.48l.73-1.1,7.37-4.79,2.21-1.84.74-2.58.37-2.58-1.11-2.58-.36-.37-.74-.74L212.56,140l-2.21-2.58-.37-.74Z"/><path d="M131.5,188.11l-5.16-.37-5.16-.74L116,185.53l-4.79-1.48-4.79-2.21-4.06-3L98,176l-3.68-3.32L91,169l-3-4.06-2.58-4.42-2.57-4.79-1.48-4.79-1.47-4.78-.74-5.53-.37-5.53.37-5.16.74-5.16,1.47-5.15,1.48-4.79L85.44,110,88,105.94l3-4.42,3.32-3.68L98,94.52l4.42-2.94L106.45,89l4.79-2.58L116,85l5.15-1.48,5.16-.74,5.16-.37,5.53.37,5.52.74L147.34,85l4.79,1.47L156.92,89l4.42,2.58,4.06,2.94,3.68,3.32,3.32,3.68,2.94,4.42,2.58,4.06,2.58,4.79,1.48,4.79,1.47,5.15.74,5.16.36,5.16-.36,5.53-.74,5.53L182,150.89l-1.48,4.79-2.58,4.79-2.58,4.42L172.4,169l-3.32,3.68L165.4,176l-4.06,2.94-4.42,3-4.79,2.21-4.79,1.48L142.55,187l-5.52.74Zm0-110.17-5.53.37-5.89.74-5.53,1.47-5.16,1.84L104.24,85l-4.43,2.57L95,90.84l-3.68,4-4,3.69L84,103.37l-2.58,4.41L78.81,113,77,118.1l-1.47,5.53-.74,5.89-.37,5.53.37,5.9.74,5.89L77,152.37l1.84,5.15,2.58,5.17L84,167.47l3.32,4.43,4,4L95,179.63,99.81,183l4.43,2.58,5.15,2.58,5.16,1.84,5.53,1.47,5.89.74,5.53.37,5.9-.37,5.89-.74,5.53-1.47,5.15-1.84,5.16-2.58,4.79-2.58,4.42-3.32L172.4,176l3.68-4,3.32-4.43,2.58-4.78,2.57-5.17,1.85-5.15,1.47-5.53.74-5.89.37-5.9-.37-5.53-.74-5.89-1.47-5.53L184.55,113,182,107.78l-2.58-4.41-3.32-4.79-3.68-3.69-4.06-4-4.42-3.32L159.13,85,154,82.36l-5.15-1.84-5.53-1.47-5.89-.74Z"/><polygon points="124.87 149.42 105.71 130.63 102.39 133.95 124.87 156.06 163.19 117.74 159.87 114.42 124.87 149.42"/></svg>