<svg xmlns="http://www.w3.org/2000/svg" viewBox="0 0 56.91 43.79"><defs><style>.cls-1{fill:#36445f;}.cls-2{fill:#fff;}</style></defs><g id="Layer_2" data-name="Layer 2"><g id="Layer_1-2" data-name="Layer 1"><path class="cls-1" d="M42.56.22c-5.1-.89-9.87,1.13-13,2.48h0a2.72,2.72,0,0,1-2.13,0h0c-3.16-1.35-7.93-3.37-13-2.48C5.79,1.72-.11,9.28,0,18.61.18,33.14,15.82,41,25,43.34a14.16,14.16,0,0,0,3.43.45h.15a15.45,15.45,0,0,0,3.52-.47C41.2,41,56.73,33.09,56.91,18.61,57,9.28,51.12,1.72,42.56.22"/><path class="cls-2" d="M47.58,24l0,.29-.06.25-.14.23-.17.2-.2.17-.22.14-.26.06-.28,0H10.69l-.26,0-.25-.06L10,25.17,9.75,25l-.17-.2-.14-.23-.08-.25,0-.29V16.29l.05-.17L9.47,16l.14-.08.17-.06h.65l.17,0,.12.09.11.11,0,.14L12,21.31h33l1.13-5.11.06-.14.11-.11.12-.09.14,0h.62l.2.06.14.08.09.15,0,.17Zm-.46-9.11H46.5l-.23,0-.22.09-.23.08-.2.12-.14.17-.14.17-.12.2-.08.22-.94,4.4H12.7L11.77,16l-.06-.22-.11-.2-.14-.17-.17-.17-.17-.12L10.89,15,10.66,15l-.23,0H9.78l-.25,0L9.27,15,9,15.18l-.19.17-.17.2-.15.23L8.45,16l0,.26V24l.06.49.14.42.23.37.25.34.34.28.37.2.43.14.45,0H13v2.3h.91V26.3H43v2.3h.91V26.3h2.3l.48,0,.42-.14.37-.2.34-.28.29-.34.2-.37.14-.42,0-.49V16.29l0-.26-.06-.25-.14-.23-.17-.2-.2-.17L47.66,15,47.41,15Z"/><polygon class="cls-2" points="11.14 12.65 11.17 12.4 11.26 12.14 11.4 11.92 11.57 11.72 11.77 11.55 11.99 11.41 12.25 11.32 12.51 11.29 44.37 11.29 44.66 11.32 44.91 11.41 45.14 11.55 45.34 11.72 45.51 11.92 45.65 12.14 45.71 12.4 45.73 12.65 45.73 14.02 46.67 14.02 46.67 12.65 46.64 12.2 46.5 11.78 46.3 11.41 46.02 11.06 45.65 10.78 45.28 10.58 44.85 10.44 44.37 10.38 12.51 10.38 12.05 10.44 11.63 10.58 11.26 10.78 10.92 11.06 10.66 11.41 10.44 11.78 10.29 12.2 10.24 12.65 10.24 14.02 11.14 14.02 11.14 12.65"/></g></g></svg>