<svg id="Layer_1" data-name="Layer 1" xmlns="http://www.w3.org/2000/svg" viewBox="0 0 16.8 16"><defs><style>.cls-1{fill:#fbb03b;}</style></defs><title>issft</title><path class="cls-1" d="M3,15.3c0-.32.12-.69.18-1.07l.66-3.82a.24.24,0,0,0-.09-.26L.25,6.78A.65.65,0,0,1,0,6.08.63.63,0,0,1,.6,5.63L4.23,5.1C4.64,5,5.05,5,5.45,4.92a.29.29,0,0,0,.19-.15C6.35,3.35,7.05,1.92,7.76.5a.77.77,0,0,1,.4-.45A.63.63,0,0,1,9,.38L10.6,3.64c.18.37.38.75.56,1.13a.25.25,0,0,0,.22.16l4.84.7a.62.62,0,0,1,.55.45.61.61,0,0,1-.2.68l-3.48,3.37a.31.31,0,0,0-.09.31c.27,1.59.55,3.18.82,4.77a.63.63,0,0,1-.23.66.65.65,0,0,1-.72,0L8.56,13.65a.29.29,0,0,0-.32,0L3.93,15.91A.64.64,0,0,1,3,15.3Z"/></svg>