<svg xmlns="http://www.w3.org/2000/svg" viewBox="0 0 163.81 48.87"><defs><style>.cls-1{fill:#374560;}.cls-2,.cls-4{fill:none;stroke-miterlimit:22.93;}.cls-2{stroke:#fff;stroke-width:2px;}.cls-3{fill:#fff;}.cls-4{stroke:#374560;stroke-width:0.5px;}.cls-5{fill:#414142;}</style></defs><g id="Layer_2" data-name="Layer 2"><g id="Layer_1-2" data-name="Layer 1"><circle class="cls-1" cx="24.44" cy="24.44" r="23.44" transform="matrix(0.08, -1, 1, 0.08, -1.98, 46.72)"/><circle class="cls-2" cx="24.44" cy="24.44" r="23.44" transform="matrix(0.08, -1, 1, 0.08, -1.98, 46.72)"/><path class="cls-3" d="M28.76,29.8v1.49H20.62V29.8H24V19.53a2.67,2.67,0,0,1-.66.62,7.44,7.44,0,0,1-1,.63,8.46,8.46,0,0,1-1.17.48,3.44,3.44,0,0,1-1.05.19V19.87a2.88,2.88,0,0,0,1.21-.32,7.79,7.79,0,0,0,1.25-.72,10.5,10.5,0,0,0,1-.76,1.9,1.9,0,0,0,.46-.48h1.68V29.8Z"/><circle class="cls-3" cx="88.19" cy="24.44" r="17.81" transform="translate(2.36 56.18) rotate(-35.78)"/><circle class="cls-4" cx="88.19" cy="24.44" r="17.81" transform="translate(2.36 56.18) rotate(-35.78)"/><circle class="cls-3" cx="145.75" cy="24.44" r="17.81" transform="translate(10.62 84.27) rotate(-33.4)"/><circle class="cls-4" cx="145.75" cy="24.44" r="17.81" transform="translate(10.62 84.27) rotate(-33.4)"/><path class="cls-5" d="M84.27,29.8a7.64,7.64,0,0,1,.11-1.25,4.64,4.64,0,0,1,.43-1.25,4.9,4.9,0,0,1,.91-1.19A6.71,6.71,0,0,1,87.3,25l1.11-.54a6.64,6.64,0,0,0,1-.59,3.37,3.37,0,0,0,.8-.74,1.58,1.58,0,0,0,.31-1,1.51,1.51,0,0,0-.16-.68,1.64,1.64,0,0,0-.45-.6,2.27,2.27,0,0,0-.75-.43,3.33,3.33,0,0,0-2.13,0,3.78,3.78,0,0,0-.83.41,3.88,3.88,0,0,0-.61.5,5.1,5.1,0,0,0-.38.43l-.82-.89c.07-.08.21-.21.42-.41a4.88,4.88,0,0,1,.81-.58,6.52,6.52,0,0,1,1.18-.52,4.74,4.74,0,0,1,1.51-.23,4.63,4.63,0,0,1,1.5.23,3.35,3.35,0,0,1,1.11.63,2.78,2.78,0,0,1,.69.92,2.58,2.58,0,0,1,.24,1.09,2.45,2.45,0,0,1-.33,1.29,3.71,3.71,0,0,1-.81.95,5.24,5.24,0,0,1-1,.68l-1,.49a12.12,12.12,0,0,0-1.14.57,6.23,6.23,0,0,0-1,.7,3.66,3.66,0,0,0-.72.86,2,2,0,0,0-.28,1.06H92.1V29.8Z"/><path class="cls-5" d="M147.21,24.15a3,3,0,0,1,1.92,1.1,3.41,3.41,0,0,1,.72,2.21,3.72,3.72,0,0,1-.3,1.5,3.21,3.21,0,0,1-.85,1.17,4.16,4.16,0,0,1-1.34.75,5.45,5.45,0,0,1-1.72.26,5,5,0,0,1-2.43-.56A3.68,3.68,0,0,1,141.65,29l.85-.78a3.07,3.07,0,0,0,1.17,1.28,3.8,3.8,0,0,0,2,.47,3.18,3.18,0,0,0,2.15-.67,2.35,2.35,0,0,0,.79-1.9,2.56,2.56,0,0,0-.82-2,3.45,3.45,0,0,0-2.37-.73h-.46V23.66h.49a3.14,3.14,0,0,0,2.15-.65,2.11,2.11,0,0,0,.75-1.68,2.27,2.27,0,0,0-.2-1,1.91,1.91,0,0,0-.56-.7,2.42,2.42,0,0,0-.83-.43,3.81,3.81,0,0,0-2.89.32,3,3,0,0,0-1.19,1.29l-.8-.77a2.73,2.73,0,0,1,.62-.87,3.79,3.79,0,0,1,.91-.66,4.49,4.49,0,0,1,1.13-.43,4.93,4.93,0,0,1,1.28-.16,4.74,4.74,0,0,1,1.54.24,3.64,3.64,0,0,1,1.21.67,3,3,0,0,1,.79,1,3.05,3.05,0,0,1,.29,1.33,3.39,3.39,0,0,1-.17,1.05,3,3,0,0,1-.47.89,2.85,2.85,0,0,1-.76.66A2.56,2.56,0,0,1,147.21,24.15Z"/><line class="cls-4" x1="52.47" y1="24.53" x2="67.03" y2="24.53"/><line class="cls-4" x1="109.72" y1="24.53" x2="124.28" y2="24.53"/></g></g></svg>