<svg id="Layer_1" data-name="Layer 1" xmlns="http://www.w3.org/2000/svg" viewBox="0 0 263 263"><title>LOGOS</title><path d="M112.38,199.52l-.25,3.4-.94,2.81-1.35,2.8L108,210.74l-2.48,2-2.57,1.4-3,1-3.34.4-2.64-.2-2.93-.8-2.63-1.4-2.33-2-1.8-2.4-1.42-2.6-1.06-2.8-.28-3,.48-3.2,1-2.81,1.37-2.6,1.82-2.41,2.31-1.8L91,186.1l3.24-1,3.14-.4,2.84.2,2.73.8,2.63,1.4,2.26,1.6,2,2.41,1.45,2.8,1.06,2.8Zm-15.87-20-4.14.4-3.78,1.4-3.51,1.8-2.81,2.41-2.35,2.8-1.85,3.41-1.19,3.8-.55,4,.16,2.2.29,1.8.53,2,.72,2,.89,1.81,1.13,2,2.72,3.2,3.23,2.6,3.73,2,3.8,1.2,3.84.2,4.34-.4,3.78-1.4,3.34-1.61,3-2.4,2.32-3,1.65-3.41,1.18-3.8.52-4.21-.09-1.8-.33-2-.35-2.2-.9-1.8-.69-1.8-1.09-1.8-2.76-3.41-3.19-2.41-3.73-2-1.94-.8-1.87-.4-2-.2Z"/><path d="M194.58,143.24l-.2-30.85h8.42l2.43.2,2.3.6,2.14.8,2,1.41,1.66,1.6,1.49,1.8,1.13,2,1,2.21L222,140.63l.63,1.4.39,1.21Zm-20.77-36.66-.06,5.81.11,43.87H55.69L55.48,97H173.65Zm70.66,49.08-13.88-10.22-1-1-1.2-1.2-.86-1.61-.46-1.6L222,122.21l-1.28-3-1.66-2.8-2.23-2.61-2.36-2.2-2.89-1.81-3-1.4-3.14-.8-3.44-.2H179L178.85,92H50.46l-.07,23H20.55l0,5.21H50.44L50.52,133H32.09l0,5.21H50.56l.06,10.21H15.36l-.15,5.21H50.66l-.07,46.47H71.22l.17-.2-.07-.4v-2.4l.25-2.21H56l-.25-33.65H173.87l.06,33.65H122.05l.62,2.61,0,2.6h56.48l.15-5.21L179,112.39h10.22l0,36.05h37.85l.47.41.5.6,13.64,10,.73.8.56,1,.37,1,0,1,.16,25.64-.18,1.4-.47.8-1.28,2-1.6,1.2-2.31.6H230l.62,2.61,0,2.6h7.82l2.17-.2,1.9-.6,1.64-1,1.38-1.41,1.37-1.4.91-1.8.71-1.8,0-2.2-.15-25.64-.16-2.21-.79-2.4-1.33-2Z"/><path d="M220.34,199.52h0l-.25,3.4-.94,2.81-1.35,2.8L216,210.74l-2.48,2-2.57,1.4-3,1-3.14.4-2.84-.2-2.94-.8-2.63-1.4-2.32-2-1.8-2.4-1.42-2.6-1.06-2.8-.28-3,.48-3.2.94-2.81,1.38-2.6,1.82-2.41,2.31-1.8,2.78-1.4,3-1,3.14-.4,2.83.2,2.74.8,2.63,1.4,2.26,1.6,2,2.41,1.46,2.8.86,2.8Zm-15.87-20-4.14.4-3.78,1.4-3.51,1.8-2.81,2.41-2.35,2.8L186,191.71l-1.19,3.8-.55,4,.16,2.2.29,1.8.32,2,.93,2,.69,1.81,1.13,2,1.46,1.6,1.46,1.6,3.23,2.6,3.73,2,3.8,1.2,4,.2,4.14-.4,3.78-1.4,3.34-1.61,3-2.4,2.31-3,1.65-3.41,1.19-3.8.52-4.21-.09-1.8-.33-2-.36-2.2-.69-1.8-.89-1.8-1.1-1.8-2.75-3.41-3.4-2.41-3.73-2-1.93-.8-1.67-.4-2-.2Z"/></svg>