<svg id="Layer_1" data-name="Layer 1" xmlns="http://www.w3.org/2000/svg" viewBox="0 0 263 263"><defs><style>.cls-1{fill:#231f20;}</style></defs><title>LOGOS</title><path class="cls-1" d="M198.12,201.56h-7V175.77a22.3,22.3,0,0,0-22.28-22.27H94.16a22.29,22.29,0,0,0-22.27,22.27v25.79h-7V175.77a29.32,29.32,0,0,1,29.28-29.29h74.67a29.32,29.32,0,0,1,29.29,29.29Z"/><path class="cls-1" d="M131.5,132.46A35.51,35.51,0,1,1,167,97a35.55,35.55,0,0,1-35.51,35.5m0-64A28.49,28.49,0,1,0,160,97,28.54,28.54,0,0,0,131.5,68.46Z"/></svg>