<svg xmlns="http://www.w3.org/2000/svg" viewBox="0 0 25.76 25.96"><defs><style>.cls-1{fill:#fff;}</style></defs><g id="Layer_2" data-name="Layer 2"><g id="Layer_1-2" data-name="Layer 1"><path class="cls-1" d="M12.9,0a12.75,12.75,0,0,1,8.28,3.05,12.85,12.85,0,0,1,4.4,12,12.71,12.71,0,0,1-3.48,6.82,12.59,12.59,0,0,1-6.71,3.66,12.72,12.72,0,0,1-8.12-1,.42.42,0,0,0-.31,0L.72,25.94a.51.51,0,0,1-.67-.65c.43-2.12.87-4.23,1.31-6.35a.62.62,0,0,0-.05-.4A12.84,12.84,0,0,1,2.08,5.88,12.83,12.83,0,0,1,11.92,0Zm0,23c.37,0,.79,0,1.22-.08a10.08,10.08,0,0,0,8-6.12,10.13,10.13,0,0,0,0-7.86,10.2,10.2,0,0,0-2.65-3.62A10,10,0,0,0,16.6,3.51a9.8,9.8,0,0,0-3-.67,10.35,10.35,0,0,0-2.94.22A9.84,9.84,0,0,0,7.26,4.52a10,10,0,0,0-3.5,4.06,10.13,10.13,0,0,0-.69,6.66,11.82,11.82,0,0,0,1.17,2.91.55.55,0,0,1,0,.4C4,19.76,3.8,21,3.54,22.19c0,.2,0,.21.17.17l2.84-.67a2.88,2.88,0,0,1,.92-.2,3,3,0,0,1,.86.4A10.08,10.08,0,0,0,12.94,23Z"/><path class="cls-1" d="M16.27,19.15a7.38,7.38,0,0,1-3.68-1.1,15.38,15.38,0,0,1-5.09-4.8A6,6,0,0,1,6.4,9.67a3,3,0,0,1,.68-1.79,5.91,5.91,0,0,1,.92-1,.92.92,0,0,1,1.49.32c.36.77.7,1.55,1,2.33a1,1,0,0,1-.16,1.05c-.17.2-.32.41-.48.63a.9.9,0,0,0,0,1.09,8.88,8.88,0,0,0,1.2,1.4,14.62,14.62,0,0,0,2.46,2,4.14,4.14,0,0,0,.55.29.87.87,0,0,0,1-.2c.19-.18.37-.37.55-.56A1,1,0,0,1,16.72,15c.76.23,1.52.44,2.29.66a.94.94,0,0,1,.56,1.55,5.55,5.55,0,0,1-1.28,1.41,3,3,0,0,1-1.49.52Z"/></g></g></svg>